General                          : ChattChitto RG - Movies [R2L]
==========
Complete name                    : The Dilemma 2011 720p BRRip H264 [ChattChitto RG]
Format                           : MPEG-4
Format profile                   : Base Media
Codec ID                         : isom
File size                        : 2.15 GiB
Duration                         : 1h 51mn
Overall bit rate                 : 2 761 Kbps
Encoded date                     : UTC 2011-04-22 14:15:27

Video
==========
ID                               : 1
Format                           : AVC
Format/Info                      : Advanced Video Codec
Format profile                   : High@L4.1
Format settings, CABAC           : Yes
Format settings, ReFrames        : 4 frames
Codec ID                         : avc1
Codec ID/Info                    : Advanced Video Coding
Duration                         : 1h 51mn
Bit rate mode                    : Variable
Bit rate                         : 2 400 Kbps
Maximum bit rate                 : 12.0 Mbps
Width                            : 1 280 pixels
Height                           : 544 pixels
Display aspect ratio             : 2.35:1
Frame rate mode                  : Constant
Frame rate                       : 23.976 fps
Color space                      : YUV
Chroma subsampling               : 4:2:0
Bit depth                        : 8 bits
Scan type                        : Progressive
Bits/(Pixel*Frame)               : 0.144
Stream size                      : 1.87 GiB (87%)
Writing library                  : x264 core 114 r1913 5fd3dce
Encoded date                     : UTC 2011-04-21 23:34:54

Audio
==========
ID                               : 2
Format                           : AAC
Format/Info                      : Advanced Audio Codec
Format profile                   : LC
Codec ID                         : 40
Duration                         : 1h 51mn
Bit rate mode                    : Variable
Bit rate                         : 352.8 Kbps
Maximum bit rate                 : 475 Kbps
Channel(s)                       : 6 channels
Channel positions                : Front: L C R, Side: L R, LFE
Sampling rate                    : 48.0 KHz
Compression mode                 : Lossy
Stream size                      : 285 MiB (13%)
Encoded date                     : UTC 2011-04-22 14:15:56

Subtitles                        : English | French


----------------------------------------------------
IMDB Link: http://www.imdb.com/title/tt1578275/
----------------------------------------------------



Screen Shots:
==============    
http://chattchitto.net/chattchittorg/movies/brrip/2011/the_dilemma/1.png 
http://chattchitto.net/chattchittorg/movies/brrip/2011/the_dilemma/2.png 
http://chattchitto.net/chattchittorg/movies/brrip/2011/the_dilemma/3.png 
http://chattchitto.net/chattchittorg/movies/brrip/2011/the_dilemma/4.png 
http://chattchitto.net/chattchittorg/movies/brrip/2011/the_dilemma/5.png 
http://chattchitto.net/chattchittorg/movies/brrip/2011/the_dilemma/6.png 
http://chattchitto.net/chattchittorg/movies/brrip/2011/the_dilemma/7.png



ScreenShots Comparison:
=========================  
http://screenshotcomparison.com/comparison/45987



Plot:
======
A man discovers that his best friend's wife is having an affair.



Release Info:
==============
original name .... : The Dilemma 2011 720p BRRip H264 [ChattChitto RG]
ripper.............: Felony
encoder............: Recalled2Life (R2L)
video codec........: H264/.MP4
video bitrate......: 2400
audio codec........: AAC-LC
aspect ratio.......: 2.35:1
resolution.........: 1280 x 544
genre..............: Comedy | Drama
runtime............: 1h 51mn
language...........: English
rating.............: PG-13
subtitles..........: English | French
sample.............: Yes
2ch Audio..........: 2ch Audio for XBox Viewers
Compatibility .....: XBox | PS3 | WD Live



Source:
========
The.Dilemma.2011.720p.BluRay.x264-Felony  THANKS!



Notes:
=======
ChattChitto RG Encourages Burning this Film with ConvertXtoDVD and Playing with VLC media player.
XBox 360 | PS3 | WD Live - Compatible 
Enhanced for your viewing pleasure ;)